<mxfile host="app.diagrams.net" agent="Mozilla/5.0 (Windows NT 10.0; Win64; x64) AppleWebKit/537.36 (KHTML, like Gecko) Chrome/130.0.0.0 Safari/537.36" version="24.8.4">
  <diagram id="R2lEEEUBdFMjLlhIrx00" name="Page-1">
    <mxGraphModel dx="1195" dy="1722" grid="1" gridSize="10" guides="1" tooltips="1" connect="1" arrows="1" fold="1" page="1" pageScale="1" pageWidth="850" pageHeight="1100" math="0" shadow="0" extFonts="Permanent Marker^https://fonts.googleapis.com/css?family=Permanent+Marker">
      <root>
        <mxCell id="0" />
        <mxCell id="1" parent="0" />
        <mxCell id="C-vyLk0tnHw3VtMMgP7b-23" value="PROYECTO" style="shape=table;startSize=30;container=1;collapsible=1;childLayout=tableLayout;fixedRows=1;rowLines=0;fontStyle=1;align=center;resizeLast=1;" parent="1" vertex="1">
          <mxGeometry x="40" y="80" width="260" height="180" as="geometry" />
        </mxCell>
        <mxCell id="C-vyLk0tnHw3VtMMgP7b-24" value="" style="shape=partialRectangle;collapsible=0;dropTarget=0;pointerEvents=0;fillColor=none;points=[[0,0.5],[1,0.5]];portConstraint=eastwest;top=0;left=0;right=0;bottom=1;" parent="C-vyLk0tnHw3VtMMgP7b-23" vertex="1">
          <mxGeometry y="30" width="260" height="30" as="geometry" />
        </mxCell>
        <mxCell id="C-vyLk0tnHw3VtMMgP7b-25" value="PK" style="shape=partialRectangle;overflow=hidden;connectable=0;fillColor=none;top=0;left=0;bottom=0;right=0;fontStyle=1;" parent="C-vyLk0tnHw3VtMMgP7b-24" vertex="1">
          <mxGeometry width="30" height="30" as="geometry">
            <mxRectangle width="30" height="30" as="alternateBounds" />
          </mxGeometry>
        </mxCell>
        <mxCell id="C-vyLk0tnHw3VtMMgP7b-26" value="IdProyecto  =  Int" style="shape=partialRectangle;overflow=hidden;connectable=0;fillColor=none;top=0;left=0;bottom=0;right=0;align=left;spacingLeft=6;fontStyle=5;verticalAlign=middle;" parent="C-vyLk0tnHw3VtMMgP7b-24" vertex="1">
          <mxGeometry x="30" width="230" height="30" as="geometry">
            <mxRectangle width="230" height="30" as="alternateBounds" />
          </mxGeometry>
        </mxCell>
        <mxCell id="C-vyLk0tnHw3VtMMgP7b-27" value="" style="shape=partialRectangle;collapsible=0;dropTarget=0;pointerEvents=0;fillColor=none;points=[[0,0.5],[1,0.5]];portConstraint=eastwest;top=0;left=0;right=0;bottom=0;" parent="C-vyLk0tnHw3VtMMgP7b-23" vertex="1">
          <mxGeometry y="60" width="260" height="30" as="geometry" />
        </mxCell>
        <mxCell id="C-vyLk0tnHw3VtMMgP7b-28" value="IDX" style="shape=partialRectangle;overflow=hidden;connectable=0;fillColor=none;top=0;left=0;bottom=0;right=0;" parent="C-vyLk0tnHw3VtMMgP7b-27" vertex="1">
          <mxGeometry width="30" height="30" as="geometry">
            <mxRectangle width="30" height="30" as="alternateBounds" />
          </mxGeometry>
        </mxCell>
        <mxCell id="C-vyLk0tnHw3VtMMgP7b-29" value="CodigoProy= Varchar(16)" style="shape=partialRectangle;overflow=hidden;connectable=0;fillColor=none;top=0;left=0;bottom=0;right=0;align=left;spacingLeft=6;" parent="C-vyLk0tnHw3VtMMgP7b-27" vertex="1">
          <mxGeometry x="30" width="230" height="30" as="geometry">
            <mxRectangle width="230" height="30" as="alternateBounds" />
          </mxGeometry>
        </mxCell>
        <mxCell id="Pekcv-e669pylFgbXBKT-1" value="" style="endArrow=none;html=1;rounded=0;exitX=-0.002;exitY=1.017;exitDx=0;exitDy=0;entryX=1;entryY=0.75;entryDx=0;entryDy=0;exitPerimeter=0;" parent="1" edge="1" source="C-vyLk0tnHw3VtMMgP7b-27">
          <mxGeometry width="50" height="50" relative="1" as="geometry">
            <mxPoint x="50" y="170" as="sourcePoint" />
            <mxPoint x="300" y="170" as="targetPoint" />
            <Array as="points">
              <mxPoint x="180" y="170.5" />
            </Array>
          </mxGeometry>
        </mxCell>
        <mxCell id="Pekcv-e669pylFgbXBKT-2" value="" style="endArrow=none;html=1;rounded=0;entryX=1;entryY=0.75;entryDx=0;entryDy=0;" parent="1" edge="1">
          <mxGeometry width="50" height="50" relative="1" as="geometry">
            <mxPoint x="40" y="200" as="sourcePoint" />
            <mxPoint x="300" y="200" as="targetPoint" />
            <Array as="points">
              <mxPoint x="180" y="200.5" />
            </Array>
          </mxGeometry>
        </mxCell>
        <mxCell id="Pekcv-e669pylFgbXBKT-3" value="NombreProy = Varchar(32)" style="shape=partialRectangle;overflow=hidden;connectable=0;fillColor=none;top=0;left=0;bottom=0;right=0;align=left;spacingLeft=6;" parent="1" vertex="1">
          <mxGeometry x="70" y="170" width="230" height="30" as="geometry">
            <mxRectangle width="220" height="30" as="alternateBounds" />
          </mxGeometry>
        </mxCell>
        <mxCell id="Pekcv-e669pylFgbXBKT-4" value="" style="endArrow=none;html=1;rounded=0;entryX=1;entryY=0.75;entryDx=0;entryDy=0;" parent="1" edge="1">
          <mxGeometry width="50" height="50" relative="1" as="geometry">
            <mxPoint x="40" y="230" as="sourcePoint" />
            <mxPoint x="300" y="230" as="targetPoint" />
            <Array as="points">
              <mxPoint x="180" y="230.5" />
            </Array>
          </mxGeometry>
        </mxCell>
        <mxCell id="Pekcv-e669pylFgbXBKT-5" value="DescProy= Varchar(1024)" style="shape=partialRectangle;overflow=hidden;connectable=0;fillColor=none;top=0;left=0;bottom=0;right=0;align=left;spacingLeft=6;" parent="1" vertex="1">
          <mxGeometry x="70" y="200" width="230" height="30" as="geometry">
            <mxRectangle width="220" height="30" as="alternateBounds" />
          </mxGeometry>
        </mxCell>
        <mxCell id="FBoCnivFPj58dkp3uP10-22" value="" style="endArrow=none;html=1;rounded=0;entryX=0.119;entryY=-0.011;entryDx=0;entryDy=0;entryPerimeter=0;" edge="1" parent="1" target="C-vyLk0tnHw3VtMMgP7b-24">
          <mxGeometry width="50" height="50" relative="1" as="geometry">
            <mxPoint x="70" y="260" as="sourcePoint" />
            <mxPoint x="110" y="180" as="targetPoint" />
            <Array as="points">
              <mxPoint x="70" y="260" />
            </Array>
          </mxGeometry>
        </mxCell>
        <mxCell id="FBoCnivFPj58dkp3uP10-23" value="" style="endArrow=none;html=1;rounded=0;" edge="1" parent="1">
          <mxGeometry width="50" height="50" relative="1" as="geometry">
            <mxPoint x="40" y="260" as="sourcePoint" />
            <mxPoint x="300" y="260" as="targetPoint" />
            <Array as="points">
              <mxPoint x="190" y="260" />
            </Array>
          </mxGeometry>
        </mxCell>
        <mxCell id="FBoCnivFPj58dkp3uP10-26" value="Presupuesto = Float" style="shape=partialRectangle;overflow=hidden;connectable=0;fillColor=none;top=0;left=0;bottom=0;right=0;align=left;spacingLeft=6;" vertex="1" parent="1">
          <mxGeometry x="70" y="230" width="230" height="30" as="geometry">
            <mxRectangle width="220" height="30" as="alternateBounds" />
          </mxGeometry>
        </mxCell>
        <mxCell id="FBoCnivFPj58dkp3uP10-34" value="EMPLEADO" style="shape=table;startSize=30;container=1;collapsible=1;childLayout=tableLayout;fixedRows=1;rowLines=0;fontStyle=1;align=center;resizeLast=1;" vertex="1" parent="1">
          <mxGeometry x="600.52" y="80" width="260" height="180" as="geometry" />
        </mxCell>
        <mxCell id="FBoCnivFPj58dkp3uP10-35" value="" style="shape=partialRectangle;collapsible=0;dropTarget=0;pointerEvents=0;fillColor=none;points=[[0,0.5],[1,0.5]];portConstraint=eastwest;top=0;left=0;right=0;bottom=1;" vertex="1" parent="FBoCnivFPj58dkp3uP10-34">
          <mxGeometry y="30" width="260" height="30" as="geometry" />
        </mxCell>
        <mxCell id="FBoCnivFPj58dkp3uP10-36" value="PK" style="shape=partialRectangle;overflow=hidden;connectable=0;fillColor=none;top=0;left=0;bottom=0;right=0;fontStyle=1;" vertex="1" parent="FBoCnivFPj58dkp3uP10-35">
          <mxGeometry width="30" height="30" as="geometry">
            <mxRectangle width="30" height="30" as="alternateBounds" />
          </mxGeometry>
        </mxCell>
        <mxCell id="FBoCnivFPj58dkp3uP10-37" value="idEmpleado = Int" style="shape=partialRectangle;overflow=hidden;connectable=0;fillColor=none;top=0;left=0;bottom=0;right=0;align=left;spacingLeft=6;fontStyle=5;verticalAlign=middle;" vertex="1" parent="FBoCnivFPj58dkp3uP10-35">
          <mxGeometry x="30" width="230" height="30" as="geometry">
            <mxRectangle width="230" height="30" as="alternateBounds" />
          </mxGeometry>
        </mxCell>
        <mxCell id="FBoCnivFPj58dkp3uP10-38" value="" style="shape=partialRectangle;collapsible=0;dropTarget=0;pointerEvents=0;fillColor=none;points=[[0,0.5],[1,0.5]];portConstraint=eastwest;top=0;left=0;right=0;bottom=0;" vertex="1" parent="FBoCnivFPj58dkp3uP10-34">
          <mxGeometry y="60" width="260" height="30" as="geometry" />
        </mxCell>
        <mxCell id="FBoCnivFPj58dkp3uP10-39" value="IDX" style="shape=partialRectangle;overflow=hidden;connectable=0;fillColor=none;top=0;left=0;bottom=0;right=0;" vertex="1" parent="FBoCnivFPj58dkp3uP10-38">
          <mxGeometry width="30" height="30" as="geometry">
            <mxRectangle width="30" height="30" as="alternateBounds" />
          </mxGeometry>
        </mxCell>
        <mxCell id="FBoCnivFPj58dkp3uP10-40" value="NombreEmp = Varchar(64)" style="shape=partialRectangle;overflow=hidden;connectable=0;fillColor=none;top=0;left=0;bottom=0;right=0;align=left;spacingLeft=6;" vertex="1" parent="FBoCnivFPj58dkp3uP10-38">
          <mxGeometry x="30" width="230" height="30" as="geometry">
            <mxRectangle width="230" height="30" as="alternateBounds" />
          </mxGeometry>
        </mxCell>
        <mxCell id="FBoCnivFPj58dkp3uP10-41" value="" style="endArrow=none;html=1;rounded=0;exitX=-0.002;exitY=1.017;exitDx=0;exitDy=0;entryX=1;entryY=0.75;entryDx=0;entryDy=0;exitPerimeter=0;" edge="1" parent="1" source="FBoCnivFPj58dkp3uP10-38">
          <mxGeometry width="50" height="50" relative="1" as="geometry">
            <mxPoint x="610.52" y="170" as="sourcePoint" />
            <mxPoint x="860.52" y="170" as="targetPoint" />
            <Array as="points">
              <mxPoint x="740.52" y="170.5" />
            </Array>
          </mxGeometry>
        </mxCell>
        <mxCell id="FBoCnivFPj58dkp3uP10-42" value="" style="endArrow=none;html=1;rounded=0;entryX=1;entryY=0.75;entryDx=0;entryDy=0;" edge="1" parent="1">
          <mxGeometry width="50" height="50" relative="1" as="geometry">
            <mxPoint x="600.52" y="200" as="sourcePoint" />
            <mxPoint x="860.52" y="200" as="targetPoint" />
            <Array as="points">
              <mxPoint x="740.52" y="200.5" />
            </Array>
          </mxGeometry>
        </mxCell>
        <mxCell id="FBoCnivFPj58dkp3uP10-43" value="ApellidosEmp  = Varchar(128)" style="shape=partialRectangle;overflow=hidden;connectable=0;fillColor=none;top=0;left=0;bottom=0;right=0;align=left;spacingLeft=6;" vertex="1" parent="1">
          <mxGeometry x="630.52" y="170" width="230" height="30" as="geometry">
            <mxRectangle width="220" height="30" as="alternateBounds" />
          </mxGeometry>
        </mxCell>
        <mxCell id="FBoCnivFPj58dkp3uP10-44" value="" style="endArrow=none;html=1;rounded=0;entryX=1;entryY=0.75;entryDx=0;entryDy=0;" edge="1" parent="1">
          <mxGeometry width="50" height="50" relative="1" as="geometry">
            <mxPoint x="600.52" y="230" as="sourcePoint" />
            <mxPoint x="860.52" y="230" as="targetPoint" />
            <Array as="points">
              <mxPoint x="740.52" y="230.5" />
            </Array>
          </mxGeometry>
        </mxCell>
        <mxCell id="FBoCnivFPj58dkp3uP10-45" value="idRol = Int" style="shape=partialRectangle;overflow=hidden;connectable=0;fillColor=none;top=0;left=0;bottom=0;right=0;align=left;spacingLeft=6;" vertex="1" parent="1">
          <mxGeometry x="630.52" y="200" width="230" height="30" as="geometry">
            <mxRectangle width="220" height="30" as="alternateBounds" />
          </mxGeometry>
        </mxCell>
        <mxCell id="FBoCnivFPj58dkp3uP10-46" value="" style="endArrow=none;html=1;rounded=0;entryX=0.119;entryY=-0.011;entryDx=0;entryDy=0;entryPerimeter=0;" edge="1" parent="1" target="FBoCnivFPj58dkp3uP10-35">
          <mxGeometry width="50" height="50" relative="1" as="geometry">
            <mxPoint x="630.52" y="260" as="sourcePoint" />
            <mxPoint x="670.52" y="180" as="targetPoint" />
            <Array as="points">
              <mxPoint x="630.52" y="260" />
            </Array>
          </mxGeometry>
        </mxCell>
        <mxCell id="FBoCnivFPj58dkp3uP10-48" value="CSR = Float" style="shape=partialRectangle;overflow=hidden;connectable=0;fillColor=none;top=0;left=0;bottom=0;right=0;align=left;spacingLeft=6;" vertex="1" parent="1">
          <mxGeometry x="630.52" y="230" width="230" height="30" as="geometry">
            <mxRectangle width="220" height="30" as="alternateBounds" />
          </mxGeometry>
        </mxCell>
        <mxCell id="FBoCnivFPj58dkp3uP10-49" value="    USUARIO" style="shape=table;startSize=30;container=1;collapsible=1;childLayout=tableLayout;fixedRows=1;rowLines=0;fontStyle=1;align=center;resizeLast=1;" vertex="1" parent="1">
          <mxGeometry x="1160.52" y="80" width="260" height="180" as="geometry" />
        </mxCell>
        <mxCell id="FBoCnivFPj58dkp3uP10-50" value="" style="shape=partialRectangle;collapsible=0;dropTarget=0;pointerEvents=0;fillColor=none;points=[[0,0.5],[1,0.5]];portConstraint=eastwest;top=0;left=0;right=0;bottom=1;" vertex="1" parent="FBoCnivFPj58dkp3uP10-49">
          <mxGeometry y="30" width="260" height="30" as="geometry" />
        </mxCell>
        <mxCell id="FBoCnivFPj58dkp3uP10-51" value="PK" style="shape=partialRectangle;overflow=hidden;connectable=0;fillColor=none;top=0;left=0;bottom=0;right=0;fontStyle=1;" vertex="1" parent="FBoCnivFPj58dkp3uP10-50">
          <mxGeometry width="30" height="30" as="geometry">
            <mxRectangle width="30" height="30" as="alternateBounds" />
          </mxGeometry>
        </mxCell>
        <mxCell id="FBoCnivFPj58dkp3uP10-52" value="idUsuario = Int" style="shape=partialRectangle;overflow=hidden;connectable=0;fillColor=none;top=0;left=0;bottom=0;right=0;align=left;spacingLeft=6;fontStyle=0;verticalAlign=middle;" vertex="1" parent="FBoCnivFPj58dkp3uP10-50">
          <mxGeometry x="30" width="230" height="30" as="geometry">
            <mxRectangle width="230" height="30" as="alternateBounds" />
          </mxGeometry>
        </mxCell>
        <mxCell id="FBoCnivFPj58dkp3uP10-53" value="" style="shape=partialRectangle;collapsible=0;dropTarget=0;pointerEvents=0;fillColor=none;points=[[0,0.5],[1,0.5]];portConstraint=eastwest;top=0;left=0;right=0;bottom=0;" vertex="1" parent="FBoCnivFPj58dkp3uP10-49">
          <mxGeometry y="60" width="260" height="30" as="geometry" />
        </mxCell>
        <mxCell id="FBoCnivFPj58dkp3uP10-54" value="" style="shape=partialRectangle;overflow=hidden;connectable=0;fillColor=none;top=0;left=0;bottom=0;right=0;" vertex="1" parent="FBoCnivFPj58dkp3uP10-53">
          <mxGeometry width="30" height="30" as="geometry">
            <mxRectangle width="30" height="30" as="alternateBounds" />
          </mxGeometry>
        </mxCell>
        <mxCell id="FBoCnivFPj58dkp3uP10-55" value="NombreUsuario = Varchar(64)" style="shape=partialRectangle;overflow=hidden;connectable=0;fillColor=none;top=0;left=0;bottom=0;right=0;align=left;spacingLeft=6;" vertex="1" parent="FBoCnivFPj58dkp3uP10-53">
          <mxGeometry x="30" width="230" height="30" as="geometry">
            <mxRectangle width="230" height="30" as="alternateBounds" />
          </mxGeometry>
        </mxCell>
        <mxCell id="FBoCnivFPj58dkp3uP10-56" value="" style="endArrow=none;html=1;rounded=0;exitX=-0.002;exitY=1.017;exitDx=0;exitDy=0;entryX=1;entryY=0.75;entryDx=0;entryDy=0;exitPerimeter=0;" edge="1" parent="1" source="FBoCnivFPj58dkp3uP10-53">
          <mxGeometry width="50" height="50" relative="1" as="geometry">
            <mxPoint x="1170.52" y="170" as="sourcePoint" />
            <mxPoint x="1420.52" y="170" as="targetPoint" />
            <Array as="points">
              <mxPoint x="1300.52" y="170.5" />
            </Array>
          </mxGeometry>
        </mxCell>
        <mxCell id="FBoCnivFPj58dkp3uP10-57" value="" style="endArrow=none;html=1;rounded=0;entryX=1;entryY=0.75;entryDx=0;entryDy=0;" edge="1" parent="1">
          <mxGeometry width="50" height="50" relative="1" as="geometry">
            <mxPoint x="1160.52" y="200" as="sourcePoint" />
            <mxPoint x="1420.52" y="200" as="targetPoint" />
            <Array as="points">
              <mxPoint x="1300.52" y="200.5" />
            </Array>
          </mxGeometry>
        </mxCell>
        <mxCell id="FBoCnivFPj58dkp3uP10-58" value="PassUsuario = Varchar(32)" style="shape=partialRectangle;overflow=hidden;connectable=0;fillColor=none;top=0;left=0;bottom=0;right=0;align=left;spacingLeft=6;" vertex="1" parent="1">
          <mxGeometry x="1190.52" y="170" width="230" height="30" as="geometry">
            <mxRectangle width="220" height="30" as="alternateBounds" />
          </mxGeometry>
        </mxCell>
        <mxCell id="FBoCnivFPj58dkp3uP10-59" value="" style="endArrow=none;html=1;rounded=0;entryX=1;entryY=0.75;entryDx=0;entryDy=0;" edge="1" parent="1">
          <mxGeometry width="50" height="50" relative="1" as="geometry">
            <mxPoint x="1160.52" y="230" as="sourcePoint" />
            <mxPoint x="1420.52" y="230" as="targetPoint" />
            <Array as="points">
              <mxPoint x="1300.52" y="230.5" />
            </Array>
          </mxGeometry>
        </mxCell>
        <mxCell id="FBoCnivFPj58dkp3uP10-60" value="" style="shape=partialRectangle;overflow=hidden;connectable=0;fillColor=none;top=0;left=0;bottom=0;right=0;align=left;spacingLeft=6;" vertex="1" parent="1">
          <mxGeometry x="1190.52" y="200" width="230" height="30" as="geometry">
            <mxRectangle width="220" height="30" as="alternateBounds" />
          </mxGeometry>
        </mxCell>
        <mxCell id="FBoCnivFPj58dkp3uP10-61" value="" style="endArrow=none;html=1;rounded=0;entryX=0.119;entryY=-0.011;entryDx=0;entryDy=0;entryPerimeter=0;" edge="1" parent="1" target="FBoCnivFPj58dkp3uP10-50">
          <mxGeometry width="50" height="50" relative="1" as="geometry">
            <mxPoint x="1190.52" y="260" as="sourcePoint" />
            <mxPoint x="1230.52" y="180" as="targetPoint" />
            <Array as="points">
              <mxPoint x="1190.52" y="260" />
            </Array>
          </mxGeometry>
        </mxCell>
        <mxCell id="FBoCnivFPj58dkp3uP10-62" value="" style="endArrow=none;html=1;rounded=0;" edge="1" parent="1">
          <mxGeometry width="50" height="50" relative="1" as="geometry">
            <mxPoint x="1160.52" y="260" as="sourcePoint" />
            <mxPoint x="1420.52" y="260" as="targetPoint" />
            <Array as="points">
              <mxPoint x="1310.52" y="260" />
            </Array>
          </mxGeometry>
        </mxCell>
        <mxCell id="FBoCnivFPj58dkp3uP10-63" value="" style="shape=partialRectangle;overflow=hidden;connectable=0;fillColor=none;top=0;left=0;bottom=0;right=0;align=left;spacingLeft=6;" vertex="1" parent="1">
          <mxGeometry x="1190.52" y="230" width="230" height="30" as="geometry">
            <mxRectangle width="220" height="30" as="alternateBounds" />
          </mxGeometry>
        </mxCell>
        <mxCell id="FBoCnivFPj58dkp3uP10-64" value="ROL" style="shape=table;startSize=30;container=1;collapsible=1;childLayout=tableLayout;fixedRows=1;rowLines=0;fontStyle=1;align=center;resizeLast=1;" vertex="1" parent="1">
          <mxGeometry x="880.52" y="400" width="260" height="180" as="geometry" />
        </mxCell>
        <mxCell id="FBoCnivFPj58dkp3uP10-65" value="" style="shape=partialRectangle;collapsible=0;dropTarget=0;pointerEvents=0;fillColor=none;points=[[0,0.5],[1,0.5]];portConstraint=eastwest;top=0;left=0;right=0;bottom=1;" vertex="1" parent="FBoCnivFPj58dkp3uP10-64">
          <mxGeometry y="30" width="260" height="30" as="geometry" />
        </mxCell>
        <mxCell id="FBoCnivFPj58dkp3uP10-66" value="PK" style="shape=partialRectangle;overflow=hidden;connectable=0;fillColor=none;top=0;left=0;bottom=0;right=0;fontStyle=1;" vertex="1" parent="FBoCnivFPj58dkp3uP10-65">
          <mxGeometry width="30" height="30" as="geometry">
            <mxRectangle width="30" height="30" as="alternateBounds" />
          </mxGeometry>
        </mxCell>
        <mxCell id="FBoCnivFPj58dkp3uP10-67" value="idRol = Int" style="shape=partialRectangle;overflow=hidden;connectable=0;fillColor=none;top=0;left=0;bottom=0;right=0;align=left;spacingLeft=6;fontStyle=0;verticalAlign=middle;" vertex="1" parent="FBoCnivFPj58dkp3uP10-65">
          <mxGeometry x="30" width="230" height="30" as="geometry">
            <mxRectangle width="230" height="30" as="alternateBounds" />
          </mxGeometry>
        </mxCell>
        <mxCell id="FBoCnivFPj58dkp3uP10-68" value="" style="shape=partialRectangle;collapsible=0;dropTarget=0;pointerEvents=0;fillColor=none;points=[[0,0.5],[1,0.5]];portConstraint=eastwest;top=0;left=0;right=0;bottom=0;" vertex="1" parent="FBoCnivFPj58dkp3uP10-64">
          <mxGeometry y="60" width="260" height="30" as="geometry" />
        </mxCell>
        <mxCell id="FBoCnivFPj58dkp3uP10-69" value="IDX" style="shape=partialRectangle;overflow=hidden;connectable=0;fillColor=none;top=0;left=0;bottom=0;right=0;" vertex="1" parent="FBoCnivFPj58dkp3uP10-68">
          <mxGeometry width="30" height="30" as="geometry">
            <mxRectangle width="30" height="30" as="alternateBounds" />
          </mxGeometry>
        </mxCell>
        <mxCell id="FBoCnivFPj58dkp3uP10-70" value="NombreRol = Varchar(64)" style="shape=partialRectangle;overflow=hidden;connectable=0;fillColor=none;top=0;left=0;bottom=0;right=0;align=left;spacingLeft=6;" vertex="1" parent="FBoCnivFPj58dkp3uP10-68">
          <mxGeometry x="30" width="230" height="30" as="geometry">
            <mxRectangle width="230" height="30" as="alternateBounds" />
          </mxGeometry>
        </mxCell>
        <mxCell id="FBoCnivFPj58dkp3uP10-71" value="" style="endArrow=none;html=1;rounded=0;exitX=-0.002;exitY=1.017;exitDx=0;exitDy=0;entryX=1;entryY=0.75;entryDx=0;entryDy=0;exitPerimeter=0;" edge="1" parent="1" source="FBoCnivFPj58dkp3uP10-68">
          <mxGeometry width="50" height="50" relative="1" as="geometry">
            <mxPoint x="890.52" y="490" as="sourcePoint" />
            <mxPoint x="1140.52" y="490" as="targetPoint" />
            <Array as="points">
              <mxPoint x="1020.52" y="490.5" />
            </Array>
          </mxGeometry>
        </mxCell>
        <mxCell id="FBoCnivFPj58dkp3uP10-72" value="" style="endArrow=none;html=1;rounded=0;entryX=1;entryY=0.75;entryDx=0;entryDy=0;" edge="1" parent="1">
          <mxGeometry width="50" height="50" relative="1" as="geometry">
            <mxPoint x="880.52" y="520" as="sourcePoint" />
            <mxPoint x="1140.52" y="520" as="targetPoint" />
            <Array as="points">
              <mxPoint x="1020.52" y="520.5" />
            </Array>
          </mxGeometry>
        </mxCell>
        <mxCell id="FBoCnivFPj58dkp3uP10-73" value="DescRol = Varchar(1024)" style="shape=partialRectangle;overflow=hidden;connectable=0;fillColor=none;top=0;left=0;bottom=0;right=0;align=left;spacingLeft=6;" vertex="1" parent="1">
          <mxGeometry x="910.52" y="490" width="230" height="30" as="geometry">
            <mxRectangle width="220" height="30" as="alternateBounds" />
          </mxGeometry>
        </mxCell>
        <mxCell id="FBoCnivFPj58dkp3uP10-74" value="" style="endArrow=none;html=1;rounded=0;entryX=1;entryY=0.75;entryDx=0;entryDy=0;" edge="1" parent="1">
          <mxGeometry width="50" height="50" relative="1" as="geometry">
            <mxPoint x="880.52" y="550" as="sourcePoint" />
            <mxPoint x="1140.52" y="550" as="targetPoint" />
            <Array as="points">
              <mxPoint x="1020.52" y="550.5" />
            </Array>
          </mxGeometry>
        </mxCell>
        <mxCell id="FBoCnivFPj58dkp3uP10-75" value="" style="shape=partialRectangle;overflow=hidden;connectable=0;fillColor=none;top=0;left=0;bottom=0;right=0;align=left;spacingLeft=6;" vertex="1" parent="1">
          <mxGeometry x="910.52" y="520" width="230" height="30" as="geometry">
            <mxRectangle width="220" height="30" as="alternateBounds" />
          </mxGeometry>
        </mxCell>
        <mxCell id="FBoCnivFPj58dkp3uP10-76" value="" style="endArrow=none;html=1;rounded=0;entryX=0.119;entryY=-0.011;entryDx=0;entryDy=0;entryPerimeter=0;" edge="1" parent="1" target="FBoCnivFPj58dkp3uP10-65">
          <mxGeometry width="50" height="50" relative="1" as="geometry">
            <mxPoint x="910.52" y="580" as="sourcePoint" />
            <mxPoint x="950.52" y="500" as="targetPoint" />
            <Array as="points">
              <mxPoint x="910.52" y="580" />
            </Array>
          </mxGeometry>
        </mxCell>
        <mxCell id="FBoCnivFPj58dkp3uP10-77" value="" style="endArrow=none;html=1;rounded=0;" edge="1" parent="1">
          <mxGeometry width="50" height="50" relative="1" as="geometry">
            <mxPoint x="880.52" y="580" as="sourcePoint" />
            <mxPoint x="1140.52" y="580" as="targetPoint" />
            <Array as="points">
              <mxPoint x="1030.52" y="580" />
            </Array>
          </mxGeometry>
        </mxCell>
        <mxCell id="FBoCnivFPj58dkp3uP10-78" value="" style="shape=partialRectangle;overflow=hidden;connectable=0;fillColor=none;top=0;left=0;bottom=0;right=0;align=left;spacingLeft=6;" vertex="1" parent="1">
          <mxGeometry x="910.52" y="550" width="230" height="30" as="geometry">
            <mxRectangle width="220" height="30" as="alternateBounds" />
          </mxGeometry>
        </mxCell>
        <mxCell id="FBoCnivFPj58dkp3uP10-79" value="FACTURA" style="shape=table;startSize=30;container=1;collapsible=1;childLayout=tableLayout;fixedRows=1;rowLines=0;fontStyle=1;align=center;resizeLast=1;" vertex="1" parent="1">
          <mxGeometry x="200.51999999999998" y="399.26" width="260" height="180" as="geometry" />
        </mxCell>
        <mxCell id="FBoCnivFPj58dkp3uP10-80" value="" style="shape=partialRectangle;collapsible=0;dropTarget=0;pointerEvents=0;fillColor=none;points=[[0,0.5],[1,0.5]];portConstraint=eastwest;top=0;left=0;right=0;bottom=1;" vertex="1" parent="FBoCnivFPj58dkp3uP10-79">
          <mxGeometry y="30" width="260" height="30" as="geometry" />
        </mxCell>
        <mxCell id="FBoCnivFPj58dkp3uP10-81" value="PK" style="shape=partialRectangle;overflow=hidden;connectable=0;fillColor=none;top=0;left=0;bottom=0;right=0;fontStyle=1;" vertex="1" parent="FBoCnivFPj58dkp3uP10-80">
          <mxGeometry width="30" height="30" as="geometry">
            <mxRectangle width="30" height="30" as="alternateBounds" />
          </mxGeometry>
        </mxCell>
        <mxCell id="FBoCnivFPj58dkp3uP10-82" value="idFactura = Int" style="shape=partialRectangle;overflow=hidden;connectable=0;fillColor=none;top=0;left=0;bottom=0;right=0;align=left;spacingLeft=6;fontStyle=0;verticalAlign=middle;" vertex="1" parent="FBoCnivFPj58dkp3uP10-80">
          <mxGeometry x="30" width="230" height="30" as="geometry">
            <mxRectangle width="230" height="30" as="alternateBounds" />
          </mxGeometry>
        </mxCell>
        <mxCell id="FBoCnivFPj58dkp3uP10-83" value="" style="shape=partialRectangle;collapsible=0;dropTarget=0;pointerEvents=0;fillColor=none;points=[[0,0.5],[1,0.5]];portConstraint=eastwest;top=0;left=0;right=0;bottom=0;" vertex="1" parent="FBoCnivFPj58dkp3uP10-79">
          <mxGeometry y="60" width="260" height="30" as="geometry" />
        </mxCell>
        <mxCell id="FBoCnivFPj58dkp3uP10-84" value="" style="shape=partialRectangle;overflow=hidden;connectable=0;fillColor=none;top=0;left=0;bottom=0;right=0;" vertex="1" parent="FBoCnivFPj58dkp3uP10-83">
          <mxGeometry width="30" height="30" as="geometry">
            <mxRectangle width="30" height="30" as="alternateBounds" />
          </mxGeometry>
        </mxCell>
        <mxCell id="FBoCnivFPj58dkp3uP10-85" value="" style="shape=partialRectangle;overflow=hidden;connectable=0;fillColor=none;top=0;left=0;bottom=0;right=0;align=left;spacingLeft=6;" vertex="1" parent="FBoCnivFPj58dkp3uP10-83">
          <mxGeometry x="30" width="230" height="30" as="geometry">
            <mxRectangle width="230" height="30" as="alternateBounds" />
          </mxGeometry>
        </mxCell>
        <mxCell id="FBoCnivFPj58dkp3uP10-86" value="" style="endArrow=none;html=1;rounded=0;exitX=-0.002;exitY=1.017;exitDx=0;exitDy=0;entryX=1;entryY=0.75;entryDx=0;entryDy=0;exitPerimeter=0;" edge="1" parent="1" source="FBoCnivFPj58dkp3uP10-83">
          <mxGeometry width="50" height="50" relative="1" as="geometry">
            <mxPoint x="210.51999999999998" y="489.26" as="sourcePoint" />
            <mxPoint x="460.52" y="489.26" as="targetPoint" />
            <Array as="points">
              <mxPoint x="340.52" y="489.76" />
            </Array>
          </mxGeometry>
        </mxCell>
        <mxCell id="FBoCnivFPj58dkp3uP10-87" value="" style="endArrow=none;html=1;rounded=0;entryX=1;entryY=0.75;entryDx=0;entryDy=0;" edge="1" parent="1">
          <mxGeometry width="50" height="50" relative="1" as="geometry">
            <mxPoint x="200.51999999999998" y="519.26" as="sourcePoint" />
            <mxPoint x="460.52" y="519.26" as="targetPoint" />
            <Array as="points">
              <mxPoint x="340.52" y="519.76" />
            </Array>
          </mxGeometry>
        </mxCell>
        <mxCell id="FBoCnivFPj58dkp3uP10-88" value="IdProyecto" style="shape=partialRectangle;overflow=hidden;connectable=0;fillColor=none;top=0;left=0;bottom=0;right=0;align=left;spacingLeft=6;" vertex="1" parent="1">
          <mxGeometry x="230.51999999999998" y="489.26" width="230" height="30" as="geometry">
            <mxRectangle width="220" height="30" as="alternateBounds" />
          </mxGeometry>
        </mxCell>
        <mxCell id="FBoCnivFPj58dkp3uP10-89" value="" style="endArrow=none;html=1;rounded=0;entryX=1;entryY=0.75;entryDx=0;entryDy=0;" edge="1" parent="1">
          <mxGeometry width="50" height="50" relative="1" as="geometry">
            <mxPoint x="200.51999999999998" y="549.26" as="sourcePoint" />
            <mxPoint x="460.52" y="549.26" as="targetPoint" />
            <Array as="points">
              <mxPoint x="340.52" y="549.76" />
            </Array>
          </mxGeometry>
        </mxCell>
        <mxCell id="FBoCnivFPj58dkp3uP10-90" value="DescrFactura = Varchar(1024)" style="shape=partialRectangle;overflow=hidden;connectable=0;fillColor=none;top=0;left=0;bottom=0;right=0;align=left;spacingLeft=6;" vertex="1" parent="1">
          <mxGeometry x="230.51999999999998" y="519.26" width="230" height="30" as="geometry">
            <mxRectangle width="220" height="30" as="alternateBounds" />
          </mxGeometry>
        </mxCell>
        <mxCell id="FBoCnivFPj58dkp3uP10-91" value="" style="endArrow=none;html=1;rounded=0;entryX=0.119;entryY=-0.011;entryDx=0;entryDy=0;entryPerimeter=0;" edge="1" parent="1" target="FBoCnivFPj58dkp3uP10-80">
          <mxGeometry width="50" height="50" relative="1" as="geometry">
            <mxPoint x="230.51999999999998" y="579.26" as="sourcePoint" />
            <mxPoint x="270.52" y="499.26" as="targetPoint" />
            <Array as="points">
              <mxPoint x="230.51999999999998" y="579.26" />
            </Array>
          </mxGeometry>
        </mxCell>
        <mxCell id="FBoCnivFPj58dkp3uP10-92" value="" style="endArrow=none;html=1;rounded=0;" edge="1" parent="1">
          <mxGeometry width="50" height="50" relative="1" as="geometry">
            <mxPoint x="200.51999999999998" y="579.26" as="sourcePoint" />
            <mxPoint x="460.52" y="579.26" as="targetPoint" />
            <Array as="points">
              <mxPoint x="350.52" y="579.26" />
            </Array>
          </mxGeometry>
        </mxCell>
        <mxCell id="FBoCnivFPj58dkp3uP10-93" value="Importe = Float" style="shape=partialRectangle;overflow=hidden;connectable=0;fillColor=none;top=0;left=0;bottom=0;right=0;align=left;spacingLeft=6;" vertex="1" parent="1">
          <mxGeometry x="230.51999999999998" y="549.26" width="230" height="30" as="geometry">
            <mxRectangle width="220" height="30" as="alternateBounds" />
          </mxGeometry>
        </mxCell>
        <mxCell id="FBoCnivFPj58dkp3uP10-95" value="" style="shape=partialRectangle;overflow=hidden;connectable=0;fillColor=none;top=0;left=0;bottom=0;right=0;" vertex="1" parent="1">
          <mxGeometry x="600.52" y="170" width="30" height="30" as="geometry">
            <mxRectangle width="30" height="30" as="alternateBounds" />
          </mxGeometry>
        </mxCell>
        <mxCell id="FBoCnivFPj58dkp3uP10-96" value="FK" style="shape=partialRectangle;overflow=hidden;connectable=0;fillColor=none;top=0;left=0;bottom=0;right=0;" vertex="1" parent="1">
          <mxGeometry x="600.52" y="200" width="30" height="30" as="geometry">
            <mxRectangle width="30" height="30" as="alternateBounds" />
          </mxGeometry>
        </mxCell>
        <mxCell id="FBoCnivFPj58dkp3uP10-97" value="" style="endArrow=none;html=1;rounded=0;entryX=-0.011;entryY=0.342;entryDx=0;entryDy=0;entryPerimeter=0;" edge="1" parent="1" target="FBoCnivFPj58dkp3uP10-65">
          <mxGeometry relative="1" as="geometry">
            <mxPoint x="600" y="220" as="sourcePoint" />
            <mxPoint x="870" y="320" as="targetPoint" />
            <Array as="points">
              <mxPoint x="560" y="220" />
              <mxPoint x="560" y="440" />
            </Array>
          </mxGeometry>
        </mxCell>
        <mxCell id="FBoCnivFPj58dkp3uP10-98" value="N" style="resizable=0;html=1;whiteSpace=wrap;align=left;verticalAlign=bottom;" connectable="0" vertex="1" parent="FBoCnivFPj58dkp3uP10-97">
          <mxGeometry x="-1" relative="1" as="geometry">
            <mxPoint x="-20" as="offset" />
          </mxGeometry>
        </mxCell>
        <mxCell id="FBoCnivFPj58dkp3uP10-99" value="1" style="resizable=0;html=1;whiteSpace=wrap;align=right;verticalAlign=bottom;" connectable="0" vertex="1" parent="FBoCnivFPj58dkp3uP10-97">
          <mxGeometry x="1" relative="1" as="geometry">
            <mxPoint x="-7" as="offset" />
          </mxGeometry>
        </mxCell>
        <mxCell id="FBoCnivFPj58dkp3uP10-102" value="idUsuario = Int" style="shape=partialRectangle;overflow=hidden;connectable=0;fillColor=none;top=0;left=0;bottom=0;right=0;align=left;spacingLeft=6;" vertex="1" parent="1">
          <mxGeometry x="630" y="260" width="230.52" height="30" as="geometry">
            <mxRectangle width="220" height="30" as="alternateBounds" />
          </mxGeometry>
        </mxCell>
        <mxCell id="FBoCnivFPj58dkp3uP10-103" value="" style="line;strokeWidth=1;rotatable=0;dashed=0;labelPosition=right;align=left;verticalAlign=middle;spacingTop=0;spacingLeft=6;points=[];portConstraint=eastwest;" vertex="1" parent="1">
          <mxGeometry x="600.52" y="290" width="259.48" height="10" as="geometry" />
        </mxCell>
        <mxCell id="FBoCnivFPj58dkp3uP10-104" value="" style="endArrow=none;html=1;rounded=0;exitX=0;exitY=1;exitDx=0;exitDy=0;entryX=0.001;entryY=0.434;entryDx=0;entryDy=0;entryPerimeter=0;" edge="1" parent="1" source="FBoCnivFPj58dkp3uP10-34" target="FBoCnivFPj58dkp3uP10-103">
          <mxGeometry relative="1" as="geometry">
            <mxPoint x="650" y="300" as="sourcePoint" />
            <mxPoint x="600" y="290" as="targetPoint" />
          </mxGeometry>
        </mxCell>
        <mxCell id="FBoCnivFPj58dkp3uP10-106" value="" style="endArrow=none;html=1;rounded=0;exitX=0;exitY=1;exitDx=0;exitDy=0;entryX=0.001;entryY=0.434;entryDx=0;entryDy=0;entryPerimeter=0;" edge="1" parent="1">
          <mxGeometry relative="1" as="geometry">
            <mxPoint x="630" y="260" as="sourcePoint" />
            <mxPoint x="630" y="294" as="targetPoint" />
          </mxGeometry>
        </mxCell>
        <mxCell id="FBoCnivFPj58dkp3uP10-107" value="" style="endArrow=none;html=1;rounded=0;exitX=1;exitY=1;exitDx=0;exitDy=0;" edge="1" parent="1" source="FBoCnivFPj58dkp3uP10-34">
          <mxGeometry relative="1" as="geometry">
            <mxPoint x="860" y="260" as="sourcePoint" />
            <mxPoint x="860" y="300" as="targetPoint" />
          </mxGeometry>
        </mxCell>
        <mxCell id="FBoCnivFPj58dkp3uP10-111" value="" style="endArrow=none;html=1;rounded=0;entryX=0;entryY=0.5;entryDx=0;entryDy=0;" edge="1" parent="1" target="FBoCnivFPj58dkp3uP10-50">
          <mxGeometry relative="1" as="geometry">
            <mxPoint x="860" y="280" as="sourcePoint" />
            <mxPoint x="1090" y="270" as="targetPoint" />
          </mxGeometry>
        </mxCell>
        <mxCell id="FBoCnivFPj58dkp3uP10-112" value="1" style="resizable=0;html=1;whiteSpace=wrap;align=left;verticalAlign=bottom;" connectable="0" vertex="1" parent="FBoCnivFPj58dkp3uP10-111">
          <mxGeometry x="-1" relative="1" as="geometry">
            <mxPoint x="10" y="10" as="offset" />
          </mxGeometry>
        </mxCell>
        <mxCell id="FBoCnivFPj58dkp3uP10-113" value="1" style="resizable=0;html=1;whiteSpace=wrap;align=right;verticalAlign=bottom;" connectable="0" vertex="1" parent="FBoCnivFPj58dkp3uP10-111">
          <mxGeometry x="1" relative="1" as="geometry" />
        </mxCell>
        <mxCell id="FBoCnivFPj58dkp3uP10-115" value="FK" style="shape=partialRectangle;overflow=hidden;connectable=0;fillColor=none;top=0;left=0;bottom=0;right=0;" vertex="1" parent="1">
          <mxGeometry x="600.52" y="260" width="30" height="30" as="geometry">
            <mxRectangle width="30" height="30" as="alternateBounds" />
          </mxGeometry>
        </mxCell>
        <mxCell id="FBoCnivFPj58dkp3uP10-116" value="PROYECTOEMPLEADO" style="shape=table;startSize=30;container=1;collapsible=1;childLayout=tableLayout;fixedRows=1;rowLines=0;fontStyle=1;align=center;resizeLast=1;" vertex="1" parent="1">
          <mxGeometry x="320.52" y="-320" width="260" height="180" as="geometry" />
        </mxCell>
        <mxCell id="FBoCnivFPj58dkp3uP10-117" value="" style="shape=partialRectangle;collapsible=0;dropTarget=0;pointerEvents=0;fillColor=none;points=[[0,0.5],[1,0.5]];portConstraint=eastwest;top=0;left=0;right=0;bottom=1;" vertex="1" parent="FBoCnivFPj58dkp3uP10-116">
          <mxGeometry y="30" width="260" height="30" as="geometry" />
        </mxCell>
        <mxCell id="FBoCnivFPj58dkp3uP10-118" value="PK" style="shape=partialRectangle;overflow=hidden;connectable=0;fillColor=none;top=0;left=0;bottom=0;right=0;fontStyle=0;" vertex="1" parent="FBoCnivFPj58dkp3uP10-117">
          <mxGeometry width="30" height="30" as="geometry">
            <mxRectangle width="30" height="30" as="alternateBounds" />
          </mxGeometry>
        </mxCell>
        <mxCell id="FBoCnivFPj58dkp3uP10-119" value="idProyecto = Int" style="shape=partialRectangle;overflow=hidden;connectable=0;fillColor=none;top=0;left=0;bottom=0;right=0;align=left;spacingLeft=6;fontStyle=0;verticalAlign=middle;" vertex="1" parent="FBoCnivFPj58dkp3uP10-117">
          <mxGeometry x="30" width="230" height="30" as="geometry">
            <mxRectangle width="230" height="30" as="alternateBounds" />
          </mxGeometry>
        </mxCell>
        <mxCell id="FBoCnivFPj58dkp3uP10-120" value="" style="shape=partialRectangle;collapsible=0;dropTarget=0;pointerEvents=0;fillColor=none;points=[[0,0.5],[1,0.5]];portConstraint=eastwest;top=0;left=0;right=0;bottom=0;" vertex="1" parent="FBoCnivFPj58dkp3uP10-116">
          <mxGeometry y="60" width="260" height="30" as="geometry" />
        </mxCell>
        <mxCell id="FBoCnivFPj58dkp3uP10-121" value="PK" style="shape=partialRectangle;overflow=hidden;connectable=0;fillColor=none;top=0;left=0;bottom=0;right=0;" vertex="1" parent="FBoCnivFPj58dkp3uP10-120">
          <mxGeometry width="30" height="30" as="geometry">
            <mxRectangle width="30" height="30" as="alternateBounds" />
          </mxGeometry>
        </mxCell>
        <mxCell id="FBoCnivFPj58dkp3uP10-122" value="idEmpleado = int " style="shape=partialRectangle;overflow=hidden;connectable=0;fillColor=none;top=0;left=0;bottom=0;right=0;align=left;spacingLeft=6;" vertex="1" parent="FBoCnivFPj58dkp3uP10-120">
          <mxGeometry x="30" width="230" height="30" as="geometry">
            <mxRectangle width="230" height="30" as="alternateBounds" />
          </mxGeometry>
        </mxCell>
        <mxCell id="FBoCnivFPj58dkp3uP10-123" value="" style="endArrow=none;html=1;rounded=0;exitX=-0.002;exitY=1.017;exitDx=0;exitDy=0;entryX=1;entryY=0.75;entryDx=0;entryDy=0;exitPerimeter=0;" edge="1" parent="1" source="FBoCnivFPj58dkp3uP10-120">
          <mxGeometry width="50" height="50" relative="1" as="geometry">
            <mxPoint x="330.52" y="-230" as="sourcePoint" />
            <mxPoint x="580.52" y="-230" as="targetPoint" />
            <Array as="points">
              <mxPoint x="460.52" y="-229.5" />
            </Array>
          </mxGeometry>
        </mxCell>
        <mxCell id="FBoCnivFPj58dkp3uP10-124" value="" style="endArrow=none;html=1;rounded=0;entryX=1;entryY=0.75;entryDx=0;entryDy=0;" edge="1" parent="1">
          <mxGeometry width="50" height="50" relative="1" as="geometry">
            <mxPoint x="320.52" y="-200" as="sourcePoint" />
            <mxPoint x="580.52" y="-200" as="targetPoint" />
            <Array as="points">
              <mxPoint x="460.52" y="-199.5" />
            </Array>
          </mxGeometry>
        </mxCell>
        <mxCell id="FBoCnivFPj58dkp3uP10-125" value="Horas = Int" style="shape=partialRectangle;overflow=hidden;connectable=0;fillColor=none;top=0;left=0;bottom=0;right=0;align=left;spacingLeft=6;" vertex="1" parent="1">
          <mxGeometry x="350.52" y="-230" width="230" height="30" as="geometry">
            <mxRectangle width="220" height="30" as="alternateBounds" />
          </mxGeometry>
        </mxCell>
        <mxCell id="FBoCnivFPj58dkp3uP10-126" value="" style="endArrow=none;html=1;rounded=0;entryX=1;entryY=0.75;entryDx=0;entryDy=0;" edge="1" parent="1">
          <mxGeometry width="50" height="50" relative="1" as="geometry">
            <mxPoint x="320.52" y="-170" as="sourcePoint" />
            <mxPoint x="580.52" y="-170" as="targetPoint" />
            <Array as="points">
              <mxPoint x="460.52" y="-169.5" />
            </Array>
          </mxGeometry>
        </mxCell>
        <mxCell id="FBoCnivFPj58dkp3uP10-127" value="Coste = Float" style="shape=partialRectangle;overflow=hidden;connectable=0;fillColor=none;top=0;left=0;bottom=0;right=0;align=left;spacingLeft=6;" vertex="1" parent="1">
          <mxGeometry x="350.52" y="-200" width="230" height="30" as="geometry">
            <mxRectangle width="220" height="30" as="alternateBounds" />
          </mxGeometry>
        </mxCell>
        <mxCell id="FBoCnivFPj58dkp3uP10-128" value="" style="endArrow=none;html=1;rounded=0;entryX=0.119;entryY=-0.011;entryDx=0;entryDy=0;entryPerimeter=0;" edge="1" parent="1" target="FBoCnivFPj58dkp3uP10-117">
          <mxGeometry width="50" height="50" relative="1" as="geometry">
            <mxPoint x="350.52" y="-140" as="sourcePoint" />
            <mxPoint x="390.52" y="-220" as="targetPoint" />
            <Array as="points">
              <mxPoint x="350.52" y="-140" />
            </Array>
          </mxGeometry>
        </mxCell>
        <mxCell id="FBoCnivFPj58dkp3uP10-129" value="" style="endArrow=none;html=1;rounded=0;" edge="1" parent="1">
          <mxGeometry width="50" height="50" relative="1" as="geometry">
            <mxPoint x="320.52" y="-140" as="sourcePoint" />
            <mxPoint x="580.52" y="-140" as="targetPoint" />
            <Array as="points">
              <mxPoint x="470.52" y="-140" />
            </Array>
          </mxGeometry>
        </mxCell>
        <mxCell id="FBoCnivFPj58dkp3uP10-130" value="Fecha = Date" style="shape=partialRectangle;overflow=hidden;connectable=0;fillColor=none;top=0;left=0;bottom=0;right=0;align=left;spacingLeft=6;" vertex="1" parent="1">
          <mxGeometry x="350.52" y="-170" width="230" height="30" as="geometry">
            <mxRectangle width="220" height="30" as="alternateBounds" />
          </mxGeometry>
        </mxCell>
        <mxCell id="FBoCnivFPj58dkp3uP10-131" value="" style="endArrow=none;html=1;rounded=0;exitX=0;exitY=0.5;exitDx=0;exitDy=0;entryX=0;entryY=0.5;entryDx=0;entryDy=0;" edge="1" parent="1" source="C-vyLk0tnHw3VtMMgP7b-24" target="FBoCnivFPj58dkp3uP10-117">
          <mxGeometry relative="1" as="geometry">
            <mxPoint x="390" y="70" as="sourcePoint" />
            <mxPoint x="40" y="-270" as="targetPoint" />
            <Array as="points">
              <mxPoint x="20" y="120" />
              <mxPoint x="20" y="-270" />
            </Array>
          </mxGeometry>
        </mxCell>
        <mxCell id="FBoCnivFPj58dkp3uP10-134" value="" style="endArrow=none;html=1;rounded=0;exitX=0;exitY=0.25;exitDx=0;exitDy=0;entryX=0;entryY=0.5;entryDx=0;entryDy=0;" edge="1" parent="1" source="FBoCnivFPj58dkp3uP10-34" target="FBoCnivFPj58dkp3uP10-120">
          <mxGeometry relative="1" as="geometry">
            <mxPoint x="720" y="70" as="sourcePoint" />
            <mxPoint x="1001" y="-330" as="targetPoint" />
            <Array as="points">
              <mxPoint x="240" y="-160" />
            </Array>
          </mxGeometry>
        </mxCell>
        <mxCell id="FBoCnivFPj58dkp3uP10-142" value="PK" style="shape=partialRectangle;overflow=hidden;connectable=0;fillColor=none;top=0;left=0;bottom=0;right=0;" vertex="1" parent="1">
          <mxGeometry x="320.52" y="-170" width="30" height="30" as="geometry">
            <mxRectangle width="30" height="30" as="alternateBounds" />
          </mxGeometry>
        </mxCell>
        <mxCell id="FBoCnivFPj58dkp3uP10-143" value="NumFactura = Varchar(16)" style="shape=partialRectangle;overflow=hidden;connectable=0;fillColor=none;top=0;left=0;bottom=0;right=0;align=left;spacingLeft=6;fontStyle=0;verticalAlign=middle;" vertex="1" parent="1">
          <mxGeometry x="230.51999999999998" y="459.26" width="230" height="30" as="geometry">
            <mxRectangle width="230" height="30" as="alternateBounds" />
          </mxGeometry>
        </mxCell>
        <mxCell id="FBoCnivFPj58dkp3uP10-145" value="" style="endArrow=none;html=1;rounded=0;entryX=0;entryY=0.5;entryDx=0;entryDy=0;" edge="1" parent="1" target="C-vyLk0tnHw3VtMMgP7b-24">
          <mxGeometry relative="1" as="geometry">
            <mxPoint x="201" y="510" as="sourcePoint" />
            <mxPoint x="420" y="450" as="targetPoint" />
            <Array as="points">
              <mxPoint x="10" y="444" />
            </Array>
          </mxGeometry>
        </mxCell>
        <mxCell id="FBoCnivFPj58dkp3uP10-146" value="N" style="resizable=0;html=1;whiteSpace=wrap;align=left;verticalAlign=bottom;" connectable="0" vertex="1" parent="FBoCnivFPj58dkp3uP10-145">
          <mxGeometry x="-1" relative="1" as="geometry">
            <mxPoint x="-31" y="-10" as="offset" />
          </mxGeometry>
        </mxCell>
        <mxCell id="FBoCnivFPj58dkp3uP10-147" value="1" style="resizable=0;html=1;whiteSpace=wrap;align=right;verticalAlign=bottom;" connectable="0" vertex="1" parent="FBoCnivFPj58dkp3uP10-145">
          <mxGeometry x="1" relative="1" as="geometry">
            <mxPoint x="-10" y="35" as="offset" />
          </mxGeometry>
        </mxCell>
      </root>
    </mxGraphModel>
  </diagram>
</mxfile>
